<svg width="414" height="11005" viewBox="0 0 414 11005" fill="none" xmlns="http://www.w3.org/2000/svg">
<g clip-path="url(#clip0)">
<rect width="414" height="11005" fill="white"/>
<circle cx="81" cy="7200" r="12" fill="#FFC278"/>
<circle opacity="0.5" cx="31.5" cy="6408.5" r="125.5" fill="#6BB7FF"/>
<circle opacity="0.5" cx="413.5" cy="5439.5" r="125.5" fill="#6BB7FF"/>
<circle opacity="0.5" cx="21.5" cy="4036.5" r="125.5" fill="#6BB7FF"/>
<circle opacity="0.5" cx="372.5" cy="2683.5" r="125.5" fill="#6BB7FF"/>
<circle opacity="0.5" cx="15.5" cy="1802.5" r="125.5" fill="#6BB7FF"/>
<circle opacity="0.5" cx="468.5" cy="265.5" r="129.5" fill="#6BB7FF"/>
<circle cx="106" cy="355" r="12" fill="#FFC278"/>
<circle cx="254.5" cy="395.5" r="17.5" fill="#75E3EA"/>
<circle cx="242" cy="903" r="12" fill="#FFC278"/>
<circle cx="77.5" cy="1197.5" r="17.5" fill="#75E3EA"/>
<circle cx="82.5" cy="1558.5" r="17.5" fill="#75E3EA"/>
<circle cx="371.5" cy="1928.5" r="17.5" fill="#75E3EA"/>
<circle opacity="0.5" cx="417.5" cy="841.5" r="125.5" fill="#6BB7FF"/>
<circle cx="76.5" cy="3034.5" r="17.5" fill="#75E3EA"/>
<circle cx="369.5" cy="4527.5" r="17.5" fill="#75E3EA"/>
<circle cx="62.5" cy="5980.5" r="17.5" fill="#75E3EA"/>
<circle cx="413.5" cy="6827.5" r="17.5" fill="#75E3EA"/>
<circle cx="72" cy="3743" r="12" fill="#FFC278"/>
<circle cx="358" cy="5964" r="12" fill="#FFC278"/>
<circle cx="54" cy="4471" r="12" fill="#FFC278"/>
</g>
<defs>
<clipPath id="clip0">
<rect width="414" height="11005" fill="white"/>
</clipPath>
</defs>
</svg>
